<?xml version="1.0" ?><!DOCTYPE svg  PUBLIC '-//W3C//DTD SVG 1.1//EN'  'http://www.w3.org/Graphics/SVG/1.1/DTD/svg11.dtd'><svg style="enable-background:new 0 0 512 512;" version="1.1" viewBox="0 0 512 512" xml:space="preserve" xmlns="http://www.w3.org/2000/svg" xmlns:xlink="http://www.w3.org/1999/xlink"><g id="new"><g><circle cx="256" cy="256" r="253.44"/><path d="M289.86,353.4c0,9.853-7.987,17.84-17.84,17.84H240.7c-9.853,0-17.84-7.987-17.84-17.84V158.08    c0-9.853,7.987-17.84,17.84-17.84h31.32c9.853,0,17.84,7.987,17.84,17.84V353.4z" style="fill:#FFFFFF;"/><path d="M371.86,271.4c0,9.853-7.987,17.84-17.84,17.84H158.7c-9.853,0-17.84-7.987-17.84-17.84v-31.32    c0-9.853,7.987-17.84,17.84-17.84h195.32c9.853,0,17.84,7.987,17.84,17.84V271.4z" style="fill:#FFFFFF;"/></g></g><g id="Layer_1"/></svg>