<?xml version="1.0" ?><!DOCTYPE svg  PUBLIC '-//W3C//DTD SVG 1.1//EN'  'http://www.w3.org/Graphics/SVG/1.1/DTD/svg11.dtd'><svg enable-background="new 0 0 24 24" height="24px" id="Layer_1" version="1.1" viewBox="0 0 24 24" width="24px" xml:space="preserve" xmlns="http://www.w3.org/2000/svg" xmlns:xlink="http://www.w3.org/1999/xlink"><path clip-rule="evenodd" d="M6.014,14c0-0.274,0.223-0.5,0.5-0.5H23.5c0.275,0,0.5,0.225,0.5,0.5v2.001  c0,0.274-0.225,0.499-0.5,0.499H6.514c-0.277,0-0.5-0.225-0.5-0.499V14z M2.014,10.001c0,0.274,0.223,0.499,0.5,0.499H23.5  c0.275,0,0.5-0.225,0.5-0.499V8c0-0.274-0.225-0.5-0.5-0.5H2.514c-0.277,0-0.5,0.225-0.5,0.5V10.001z M10.014,4.001  c0,0.274,0.223,0.499,0.5,0.499H23.5c0.275,0,0.5-0.225,0.5-0.499V2c0-0.274-0.225-0.5-0.5-0.5H10.514c-0.277,0-0.5,0.225-0.5,0.5  V4.001z M0,22.001C0,22.275,0.225,22.5,0.5,22.5H23.5c0.275,0,0.5-0.225,0.5-0.499V20c0-0.274-0.225-0.5-0.5-0.5H0.5  C0.225,19.5,0,19.725,0,20V22.001z" fill-rule="evenodd"/></svg>