<?xml version="1.0" ?><!DOCTYPE svg  PUBLIC '-//W3C//DTD SVG 1.1//EN'  'http://www.w3.org/Graphics/SVG/1.1/DTD/svg11.dtd'><svg enable-background="new 0 0 24 24" height="24px" id="Layer_1" version="1.1" viewBox="0 0 24 24" width="24px" xml:space="preserve" xmlns="http://www.w3.org/2000/svg" xmlns:xlink="http://www.w3.org/1999/xlink"><path clip-rule="evenodd" d="M4,14c0-0.275,0.225-0.5,0.5-0.5h15c0.275,0,0.5,0.225,0.5,0.5v2.001  c0,0.274-0.225,0.499-0.5,0.499h-15c-0.275,0-0.5-0.225-0.5-0.499V14z M0,10.001C0,10.275,0.225,10.5,0.5,10.5h23  c0.275,0,0.5-0.225,0.5-0.499V8c0-0.275-0.225-0.5-0.5-0.5h-23C0.225,7.5,0,7.725,0,8V10.001z M4,4.001C4,4.275,4.225,4.5,4.5,4.5  h15c0.275,0,0.5-0.225,0.5-0.499V2c0-0.275-0.225-0.5-0.5-0.5h-15C4.225,1.5,4,1.725,4,2V4.001z M0,22.001  C0,22.275,0.225,22.5,0.5,22.5h23c0.275,0,0.5-0.225,0.5-0.499V20c0-0.275-0.225-0.5-0.5-0.5h-23C0.225,19.5,0,19.725,0,20V22.001z" fill-rule="evenodd"/></svg>