<?xml version="1.0" ?><!DOCTYPE svg  PUBLIC '-//W3C//DTD SVG 1.1//EN'  'http://www.w3.org/Graphics/SVG/1.1/DTD/svg11.dtd'><svg enable-background="new 0 0 24 24" height="24px" id="Layer_1" version="1.1" viewBox="0 0 24 24" width="24px" xml:space="preserve" xmlns="http://www.w3.org/2000/svg" xmlns:xlink="http://www.w3.org/1999/xlink"><path clip-rule="evenodd" d="M17.986,16.001c0,0.274-0.223,0.499-0.5,0.499H0.5c-0.275,0-0.5-0.225-0.5-0.499  V14c0-0.275,0.225-0.5,0.5-0.5h16.986c0.277,0,0.5,0.225,0.5,0.5V16.001z M21.986,8c0-0.275-0.223-0.5-0.5-0.5H0.5  C0.225,7.5,0,7.725,0,8v2.001C0,10.275,0.225,10.5,0.5,10.5h20.986c0.277,0,0.5-0.225,0.5-0.499V8z M13.986,2  c0-0.275-0.223-0.5-0.5-0.5H0.5C0.225,1.5,0,1.725,0,2v2.001C0,4.275,0.225,4.5,0.5,4.5h12.986c0.277,0,0.5-0.225,0.5-0.499V2z   M24,20c0-0.275-0.225-0.5-0.5-0.5h-23C0.225,19.5,0,19.725,0,20v2.001C0,22.275,0.225,22.5,0.5,22.5h23  c0.275,0,0.5-0.225,0.5-0.499V20z" fill-rule="evenodd"/></svg>